<?xml version="1.0" standalone="no"?>
<!DOCTYPE svg PUBLIC "-//W3C//DTD SVG 20010904//EN"
 "http://www.w3.org/TR/2001/REC-SVG-20010904/DTD/svg10.dtd">
<svg version="1.0" xmlns="http://www.w3.org/2000/svg"
 width="50px" height="39px" viewBox="0 0 398.000000 953.000000"
 preserveAspectRatio="xMidYMid meet">
<metadata>
Created by potrace 1.16, written by Peter Selinger 2001-2019
</metadata>
<g transform="translate(0.000000,953.000000) scale(0.100000,-0.100000)"
fill="#000000" stroke="none">
<path d="M1948 8700 c-56 -6 -89 -15 -120 -33 -81 -49 -143 -103 -191 -167
l-49 -65 4 -115 c3 -68 11 -127 19 -144 12 -27 12 -30 -9 -44 -18 -12 -22 -24
-22 -65 0 -40 8 -63 37 -113 24 -41 44 -64 57 -66 24 -3 34 -51 35 -168 l1
-65 -80 -39 c-47 -22 -89 -50 -100 -66 -16 -23 -32 -30 -87 -40 -80 -13 -93
-22 -93 -62 0 -52 -48 -126 -100 -153 -14 -7 -62 -23 -108 -35 -86 -23 -101
-35 -84 -67 12 -22 5 -43 -14 -43 -8 0 -14 -7 -14 -15 0 -8 -19 -39 -43 -68
-73 -90 -113 -167 -156 -300 -59 -182 -90 -320 -100 -450 -5 -62 -22 -177 -37
-256 -25 -130 -26 -149 -15 -200 21 -96 29 -184 25 -302 -2 -62 1 -130 7 -151
8 -33 6 -51 -21 -127 -33 -97 -31 -125 11 -154 l21 -16 -23 -65 -24 -66 24
-43 c21 -39 23 -48 12 -77 -16 -48 -14 -74 9 -88 11 -7 20 -23 20 -36 0 -18
12 -33 43 -53 36 -25 43 -34 48 -73 l5 -45 8 38 c11 50 -4 81 -48 102 -36 17
-40 24 -51 87 -7 46 10 75 67 113 44 29 166 51 220 39 24 -5 28 -11 28 -40 0
-18 7 -67 16 -108 19 -86 15 -98 -44 -117 -54 -18 -105 -52 -140 -94 -19 -24
-35 -35 -43 -30 -17 11 -4 -53 16 -76 9 -9 27 -58 40 -109 14 -50 32 -101 40
-113 9 -13 15 -44 15 -74 0 -30 9 -97 21 -151 20 -92 28 -113 78 -207 11 -21
21 -57 21 -78 0 -21 13 -91 29 -155 21 -86 30 -151 34 -245 3 -91 9 -134 20
-151 13 -19 14 -31 5 -62 -6 -24 -8 -79 -5 -139 6 -89 19 -155 73 -370 11 -41
16 -125 19 -265 2 -152 7 -218 19 -255 9 -27 16 -71 16 -97 0 -54 39 -123 75
-132 21 -5 22 -9 13 -48 -5 -24 -20 -68 -34 -98 -41 -87 -54 -139 -60 -235
-21 -301 117 -506 283 -424 28 14 62 42 80 67 31 41 33 42 33 17 0 -22 3 -25
20 -20 18 6 20 2 20 -50 0 -32 -11 -123 -24 -204 -14 -80 -27 -174 -31 -209
-6 -61 -6 -62 22 -73 37 -15 375 -14 431 0 23 7 46 20 52 31 13 24 13 65 0 88
-5 9 -18 65 -30 124 -12 59 -30 133 -40 164 -30 85 -27 104 13 105 17 1 40 1
50 0 9 -1 17 0 17 2 0 28 49 228 71 293 27 78 30 103 40 297 5 117 17 240 25
275 7 35 14 81 14 103 0 22 7 70 15 107 9 43 20 209 29 467 16 402 23 473 67
648 11 43 41 171 66 285 25 114 51 235 59 270 8 35 35 98 62 145 26 45 64 127
86 182 21 55 49 121 62 146 13 26 24 54 24 62 0 8 8 17 18 19 13 4 23 22 31
53 18 71 37 102 80 130 22 13 42 35 46 47 4 13 18 32 31 44 23 19 25 28 28
120 2 79 7 108 24 140 11 21 32 64 47 94 14 30 34 71 45 91 25 45 26 121 4
199 -15 53 -14 58 4 106 29 72 36 135 22 193 -11 46 -10 52 10 79 38 52 38
126 -4 292 -34 135 -36 154 -33 280 l2 135 -57 197 c-32 108 -65 228 -73 267
-17 81 -30 109 -74 165 -17 21 -31 47 -31 57 0 10 -17 27 -42 41 -32 17 -44
31 -48 53 -3 16 -12 31 -20 32 -82 10 -90 14 -120 59 -17 24 -36 59 -42 77
-17 51 -37 67 -81 67 l-39 0 16 25 c22 33 20 72 -4 85 -11 6 -47 8 -90 4 l-70
-7 -42 46 c-31 32 -54 47 -80 52 -34 7 -38 10 -38 39 0 17 12 63 25 101 14 39
25 78 25 87 0 9 13 26 29 38 34 24 91 131 91 171 0 49 -17 79 -45 79 -23 0
-24 2 -14 27 6 15 17 42 25 60 14 28 14 40 -1 119 -19 102 -33 139 -67 175
-13 14 -35 39 -48 56 -24 29 -152 105 -195 115 -11 3 -55 2 -97 -2z m-235
-1111 c-5 -16 17 -44 103 -131 107 -107 110 -109 148 -104 43 5 122 55 197
126 42 39 49 52 50 86 1 34 5 26 35 -66 l35 -105 -22 -95 c-12 -52 -36 -126
-53 -164 l-31 -68 -53 76 c-29 42 -55 76 -58 76 -2 0 21 -38 52 -85 32 -47 61
-85 66 -85 13 0 45 80 73 188 36 135 33 128 50 106 20 -27 19 -37 -15 -91 -17
-26 -40 -77 -51 -113 -17 -56 -19 -81 -13 -180 6 -98 4 -125 -12 -175 -14 -46
-18 -91 -18 -190 1 -151 10 -204 65 -386 50 -166 58 -239 34 -294 -14 -30 -18
-71 -20 -170 -1 -71 -7 -188 -14 -260 -12 -119 -10 -195 5 -251 6 -21 2 -22
-123 -29 -70 -4 -162 -13 -203 -22 -41 -8 -160 -17 -265 -20 l-189 -6 26 32
c32 37 32 40 54 277 16 169 16 185 0 256 -13 60 -15 85 -6 123 6 26 17 124 25
219 8 94 24 209 35 256 29 118 70 445 70 560 0 78 -7 122 -40 249 -22 84 -37
157 -35 162 3 4 0 38 -6 76 -15 91 6 168 57 212 41 36 54 39 47 10z m1017
-1884 c11 -47 10 -49 -17 -71 l-28 -22 21 -84 c22 -83 21 -155 -1 -256 -6 -25
-3 -37 10 -52 21 -24 8 -26 -22 -5 -36 25 -57 96 -48 158 5 28 7 77 5 107 -9
142 -5 183 24 244 32 65 38 63 56 -19z m48 -559 c2 -21 -4 -66 -12 -100 -9
-34 -16 -79 -16 -99 0 -35 2 -37 78 -76 95 -50 148 -92 156 -126 6 -22 -1 -33
-42 -73 -37 -36 -56 -66 -79 -125 l-30 -78 -17 38 c-11 24 -36 51 -69 73 -64
43 -87 86 -87 161 0 65 12 106 52 170 15 26 28 61 28 78 0 18 8 62 17 97 14
54 15 68 4 85 -10 18 -10 20 1 17 7 -3 14 -21 16 -42z m-585 8 c40 -9 98 -30
130 -47 56 -29 127 -96 127 -118 0 -6 -8 -1 -18 12 -26 31 -70 35 -306 28
-170 -5 -219 -10 -316 -34 -99 -23 -130 -26 -220 -22 -58 2 -113 8 -122 12
-19 7 -23 46 -12 102 l6 29 186 12 c103 7 219 19 257 26 98 19 203 19 288 0z
m-340 -1326 c11 -188 8 -301 -9 -474 -11 -106 -15 -216 -12 -329 3 -118 0
-186 -9 -225 -7 -30 -13 -72 -13 -93 0 -47 -19 -127 -31 -127 -24 0 -28 40
-13 109 15 65 15 74 0 111 -11 28 -13 47 -6 64 5 13 7 26 4 28 -2 3 5 38 15
79 16 64 19 102 15 253 -2 97 -7 182 -10 188 -11 17 -5 272 7 358 14 93 37
180 48 180 4 0 11 -55 14 -122z"/>
<path d="M1908 7312 c-10 -16 -14 -32 -10 -36 4 -4 2 -6 -5 -4 -7 2 -41 -37
-77 -86 l-65 -89 -40 85 c-21 47 -42 95 -46 107 -4 12 -9 21 -11 18 -2 -2 12
-46 32 -98 20 -52 40 -105 46 -118 8 -23 12 -20 74 64 89 123 88 123 81 37 -4
-47 -15 -93 -32 -129 -20 -44 -28 -83 -35 -177 -13 -156 -30 -855 -30 -1196
l0 -265 94 -67 c52 -38 98 -68 103 -68 5 0 46 40 91 89 l81 88 -10 104 c-5 57
-13 133 -19 169 -13 91 -36 435 -55 825 -17 365 -23 416 -66 525 -16 41 -29
83 -29 92 0 24 41 60 62 54 14 -3 10 6 -14 40 -26 36 -37 44 -64 44 -18 0 -34
5 -36 10 -2 6 -11 -2 -20 -18z"/>
</g>
</svg>
